
          888    d8P         d8888 8888888b.  d8b 888b    888        d8888 
          888   d8P         d88888 888   Y88b Y8P 8888b   888       d88888 
          888  d8P         d88P888 888    888     88888b  888      d88P888 
          888d88K         d88P 888 888   d88P 888 888Y88b 888     d88P 888 
          8888888b       d88P  888 8888888P"  888 888 Y88b888    d88P  888 
          888  Y88b     d88P   888 888 T88b   888 888  Y88888   d88P   888 
          888   Y88b   d8888888888 888  T88b  888 888   Y8888  d8888888888 
          888    Y88b d88P     888 888   T88b 888 888    Y888 d88P     888 
             
                 Homicide.1991.CRITERION.DVDRip.x264.AC3-KARiNA.mkv      
                                                             
Synopsis.

Homicide | USA | 1991 | Directed by David Mamet
                                  
In David Mamet’s cinema, nothing is as it seems—so you better know what you’re looking for. Unfortunately, the protagonist of Mamet’s nightmarish urban odyssey Homicide, inner-city police detective Bobby Gold (Joe Mantegna), is as bewildered about who he is as who (or what) he’s after. Gold’s investigation, following the murder of an elderly Jewish candy-shop owner, leads him down a path of obscure encounters and clues, to a profound reckoning with his own identity. Filled with Mamet’s trademark verbal play and featuring standout supporting performances from William H. Macy, Ving Rhames, and Rebecca Pidgeon, Homicide is a taut, rich work from a true American original. Audio commentary featuring writer-director David Mamet and actor William H. Macy.

IMdB: http://www.imdb.com/title/tt0102048/ | Rating: 6.9 / 10 (1,801 votes)
                                     
General.
                                                                  
Complete name                    : Homicide.1991.CRITERION.DVDRip.x264.AC3-KARiNA.mkv
Format                           : Matroska
File size                        : 1.83 GiB
Duration                         : 1h 41mn
Overall bit rate                 : 2 579 Kbps
Source                           : Criterion NTSC DVD9
                                       
Video.                             

Format                           : AVC
Bit rate                         : 1 964 Kbps
Nominal bit rate                 : 2 000 Kbps
Width                            : 720 pixels
Height                           : 430 pixels
Display aspect ratio             : 1.984
Frame rate                       : 23.976 fps
Resolution                       : 24 bits
Colorimetry                      : 4:2:0
Scan type                        : Progressive
Bits/(Pixel*Frame)               : 0.265
Stream size                      : 2.24 GiB (82%)
Writing library                  : x264 core 65

Audio.                            

Track 1

Format                           : AC-3
Bit rate mode                    : Constant
Bit rate                         : 384 Kbps
Channel(s)                       : 2 channels
Channel positions                : L R
Sampling rate                    : 48.0 KHz
Stream size                      : 278 MiB (15%)
Title                            : Track 1
Language                         : English


Track 2 - Audio commentary featuring writer-director David Mamet and William H. Macy

Format                           : AC-3
Bit rate mode                    : Constant
Bit rate                         : 192 Kbps
Channel(s)                       : 2 channels
Channel positions                : L R
Sampling rate                    : 48.0 KHz
Stream size                      : 139 MiB (7%)
Title                            : Track 2 (Commentary)
Language                         : English

Chapters.

00:00:00.000                     : :Chapter 1
00:05:14.781                     : :Chapter 2
00:08:42.021                     : :Chapter 3
00:13:09.922                     : :Chapter 4
00:19:14.319                     : :Chapter 5
00:22:17.169                     : :Chapter 6
00:25:56.054                     : :Chapter 7
00:33:21.666                     : :Chapter 8
00:38:58.469                     : :Chapter 9
00:45:23.554                     : :Chapter 10
00:49:59.129                     : :Chapter 11
00:57:55.605                     : :Chapter 12
01:05:17.713                     : :Chapter 13
01:11:56.145                     : :Chapter 14
01:16:01.557                     : :Chapter 15
01:23:59.534                     : :Chapter 16
01:27:53.768                     : :Chapter 17
01:34:44.512                     : :Chapter 18
01:38:16.023                     : :Chapter 19
01:41:21.875                     : :Chapter 20

KARiNA.